<svg width="1440" height="710" viewBox="0 0 1440 710" fill="none" xmlns="http://www.w3.org/2000/svg">
<g filter="url(#filter0_d_0_1)">
<circle cx="47" cy="413" r="78" fill="#FF6F00"/>
</g>
<g filter="url(#filter1_d_0_1)">
<ellipse cx="315.5" cy="210" rx="75.5" ry="75" fill="#FF6F00"/>
</g>
<ellipse cx="1429.5" cy="124" rx="124.5" ry="124" fill="#FF6F00"/>
<ellipse cx="1367" cy="604" rx="62" ry="61" fill="#FF6F00"/>
<ellipse cx="1118" cy="231" rx="62" ry="61" fill="#FF6F00"/>
<circle cx="501" cy="657" r="53" fill="#FF6F00"/>
<circle cx="719.5" cy="327.5" r="191" fill="#FF6F00" stroke="#FF6F00" stroke-width="3"/>
<path d="M678.73 218.455L683.595 200.185H687.935L680.97 225H676.63L670.61 206.24L664.59 225H660.285L653.25 200.185H657.66L662.63 218.315L668.44 200.185H672.815L678.73 218.455ZM707.031 225H691.701V200.185H707.031V204.105H695.901V210.685H705.981V214.5H695.901V221.08H707.031V225ZM738.429 225L736.084 218.77H725.584L723.274 225H718.829L728.489 200.185H733.354L743.014 225H738.429ZM730.834 204.735L727.054 214.885H734.614L730.834 204.735ZM759.217 225L754.002 215.2H750.922V225H746.687V200.185H756.207C758.54 200.185 760.418 200.908 761.842 202.355C763.265 203.778 763.977 205.563 763.977 207.71C763.977 209.483 763.475 211 762.472 212.26C761.468 213.52 760.103 214.36 758.377 214.78L763.977 225H759.217ZM750.922 211.49H755.437C756.72 211.49 757.747 211.152 758.517 210.475C759.31 209.775 759.707 208.853 759.707 207.71C759.707 206.543 759.31 205.622 758.517 204.945C757.747 204.245 756.72 203.895 755.437 203.895H750.922V211.49ZM784.139 225H768.809V200.185H784.139V204.105H773.009V210.685H783.089V214.5H773.009V221.08H784.139V225Z" fill="white"/>
<path d="M646.924 438.08H644.604V446H642.664V438.08H640.884V436.38H642.664V434.76C642.664 433.733 642.964 432.927 643.564 432.34C644.164 431.753 644.917 431.46 645.824 431.46C646.397 431.46 646.77 431.527 646.944 431.66V433.34C646.744 433.26 646.47 433.22 646.124 433.22C645.71 433.22 645.35 433.347 645.044 433.6C644.75 433.84 644.604 434.26 644.604 434.86V436.38H646.924V438.08ZM650.728 443.72C651.315 444.32 652.028 444.62 652.868 444.62C653.708 444.62 654.415 444.32 654.988 443.72C655.575 443.107 655.868 442.26 655.868 441.18C655.868 440.113 655.575 439.28 654.988 438.68C654.415 438.067 653.708 437.76 652.868 437.76C652.028 437.76 651.315 438.067 650.728 438.68C650.155 439.28 649.868 440.113 649.868 441.18C649.868 442.26 650.155 443.107 650.728 443.72ZM649.328 437.54C650.262 436.567 651.442 436.08 652.868 436.08C654.295 436.08 655.468 436.567 656.388 437.54C657.322 438.5 657.788 439.713 657.788 441.18C657.788 442.66 657.328 443.887 656.408 444.86C655.488 445.82 654.308 446.3 652.868 446.3C651.428 446.3 650.248 445.82 649.328 444.86C648.408 443.887 647.948 442.66 647.948 441.18C647.948 439.713 648.408 438.5 649.328 437.54ZM665.734 436.28V438.28C665.454 438.24 665.18 438.22 664.914 438.22C663.154 438.22 662.274 439.207 662.274 441.18V446H660.394V436.38H662.234V438.06C662.82 436.833 663.78 436.22 665.114 436.22C665.327 436.22 665.534 436.24 665.734 436.28ZM674.357 440.2H679.617C679.591 439.48 679.351 438.893 678.897 438.44C678.444 437.973 677.804 437.74 676.977 437.74C676.231 437.74 675.617 437.987 675.137 438.48C674.657 438.96 674.397 439.533 674.357 440.2ZM679.897 442.7L681.517 443.26C681.237 444.153 680.717 444.887 679.957 445.46C679.197 446.02 678.277 446.3 677.197 446.3C675.851 446.3 674.704 445.84 673.757 444.92C672.824 443.987 672.357 442.733 672.357 441.16C672.357 439.693 672.811 438.48 673.717 437.52C674.624 436.56 675.704 436.08 676.957 436.08C678.411 436.08 679.544 436.54 680.357 437.46C681.171 438.367 681.577 439.587 681.577 441.12C681.577 441.36 681.564 441.56 681.537 441.72H674.297C674.311 442.573 674.591 443.273 675.137 443.82C675.697 444.367 676.384 444.64 677.197 444.64C678.571 444.64 679.471 443.993 679.897 442.7ZM692.222 436.38L688.382 446H686.482L682.582 436.38H684.702L687.442 443.8L690.202 436.38H692.222ZM695.148 440.2H700.408C700.381 439.48 700.141 438.893 699.688 438.44C699.235 437.973 698.595 437.74 697.768 437.74C697.021 437.74 696.408 437.987 695.928 438.48C695.448 438.96 695.188 439.533 695.148 440.2ZM700.688 442.7L702.308 443.26C702.028 444.153 701.508 444.887 700.748 445.46C699.988 446.02 699.068 446.3 697.988 446.3C696.641 446.3 695.495 445.84 694.548 444.92C693.615 443.987 693.148 442.733 693.148 441.16C693.148 439.693 693.601 438.48 694.508 437.52C695.415 436.56 696.495 436.08 697.748 436.08C699.201 436.08 700.335 436.54 701.148 437.46C701.961 438.367 702.368 439.587 702.368 441.12C702.368 441.36 702.355 441.56 702.328 441.72H695.088C695.101 442.573 695.381 443.273 695.928 443.82C696.488 444.367 697.175 444.64 697.988 444.64C699.361 444.64 700.261 443.993 700.688 442.7ZM710.308 436.28V438.28C710.028 438.24 709.755 438.22 709.488 438.22C707.728 438.22 706.848 439.207 706.848 441.18V446H704.968V436.38H706.808V438.06C707.395 436.833 708.355 436.22 709.688 436.22C709.901 436.22 710.108 436.24 710.308 436.28ZM715.205 450.02H713.145L715.545 444.94L711.405 436.38H713.565L716.565 443.02L719.445 436.38H721.465L715.205 450.02ZM726.091 433.34V436.38H728.171V438.08H726.091V443.08C726.091 443.533 726.191 443.867 726.391 444.08C726.604 444.293 726.951 444.4 727.431 444.4C727.711 444.4 727.958 444.373 728.171 444.32V445.92C727.851 446.04 727.424 446.1 726.891 446.1C726.064 446.1 725.411 445.86 724.931 445.38C724.451 444.9 724.211 444.227 724.211 443.36V438.08H722.371V436.38H722.891C723.384 436.38 723.751 436.247 723.991 435.98C724.244 435.7 724.371 435.34 724.371 434.9V433.34H726.091ZM732.76 440.34V446H730.88V431.52H732.76V437.5C733.4 436.567 734.374 436.1 735.68 436.1C736.787 436.1 737.634 436.453 738.22 437.16C738.82 437.867 739.12 438.78 739.12 439.9V446H737.24V440.22C737.24 438.607 736.494 437.8 735 437.8C734.307 437.8 733.767 438.04 733.38 438.52C732.994 438.987 732.787 439.593 732.76 440.34ZM744.171 446H742.311V436.38H744.171V446ZM742.271 433.7C742.018 433.433 741.891 433.113 741.891 432.74C741.891 432.367 742.018 432.047 742.271 431.78C742.538 431.513 742.858 431.38 743.231 431.38C743.604 431.38 743.924 431.513 744.191 431.78C744.458 432.033 744.591 432.353 744.591 432.74C744.591 433.113 744.458 433.433 744.191 433.7C743.924 433.953 743.604 434.08 743.231 434.08C742.858 434.08 742.538 433.953 742.271 433.7ZM749.45 440.44V446H747.57V436.38H749.41V437.76C750.05 436.653 751.036 436.1 752.37 436.1C753.476 436.1 754.323 436.453 754.91 437.16C755.51 437.867 755.81 438.78 755.81 439.9V446H753.93V440.22C753.93 438.607 753.183 437.8 751.69 437.8C750.983 437.8 750.43 438.053 750.03 438.56C749.643 439.053 749.45 439.68 749.45 440.44ZM758.3 446.52L760.12 446.1C760.187 446.78 760.46 447.34 760.94 447.78C761.42 448.233 762.02 448.46 762.74 448.46C764.7 448.46 765.68 447.42 765.68 445.34V443.96C765.44 444.427 765.06 444.807 764.54 445.1C764.033 445.393 763.433 445.54 762.74 445.54C761.46 445.54 760.4 445.107 759.56 444.24C758.733 443.36 758.32 442.24 758.32 440.88C758.32 439.56 758.733 438.453 759.56 437.56C760.387 436.653 761.447 436.2 762.74 436.2C764.207 436.2 765.193 436.707 765.7 437.72V436.38H767.56V445.28C767.56 445.92 767.473 446.513 767.3 447.06C767.14 447.62 766.88 448.133 766.52 448.6C766.16 449.067 765.653 449.433 765 449.7C764.36 449.967 763.607 450.1 762.74 450.1C761.553 450.1 760.547 449.76 759.72 449.08C758.893 448.413 758.42 447.56 758.3 446.52ZM763.02 443.96C763.833 443.96 764.493 443.68 765 443.12C765.507 442.547 765.76 441.8 765.76 440.88C765.76 439.96 765.507 439.22 765 438.66C764.493 438.087 763.833 437.8 763.02 437.8C762.193 437.8 761.52 438.08 761 438.64C760.493 439.2 760.24 439.947 760.24 440.88C760.24 441.827 760.487 442.58 760.98 443.14C761.487 443.687 762.167 443.96 763.02 443.96ZM778.362 450.02H776.302L778.702 444.94L774.562 436.38H776.722L779.722 443.02L782.602 436.38H784.622L778.362 450.02ZM788.221 443.72C788.807 444.32 789.521 444.62 790.361 444.62C791.201 444.62 791.907 444.32 792.481 443.72C793.067 443.107 793.361 442.26 793.361 441.18C793.361 440.113 793.067 439.28 792.481 438.68C791.907 438.067 791.201 437.76 790.361 437.76C789.521 437.76 788.807 438.067 788.221 438.68C787.647 439.28 787.361 440.113 787.361 441.18C787.361 442.26 787.647 443.107 788.221 443.72ZM786.821 437.54C787.754 436.567 788.934 436.08 790.361 436.08C791.787 436.08 792.961 436.567 793.881 437.54C794.814 438.5 795.281 439.713 795.281 441.18C795.281 442.66 794.821 443.887 793.901 444.86C792.981 445.82 791.801 446.3 790.361 446.3C788.921 446.3 787.741 445.82 786.821 444.86C785.901 443.887 785.441 442.66 785.441 441.18C785.441 439.713 785.901 438.5 786.821 437.54ZM804.128 444.84C803.875 445.32 803.488 445.687 802.968 445.94C802.448 446.18 801.888 446.3 801.288 446.3C800.195 446.3 799.322 445.94 798.668 445.22C798.015 444.487 797.688 443.56 797.688 442.44V436.38H799.568V442.16C799.568 442.88 799.742 443.473 800.088 443.94C800.448 444.407 801.002 444.64 801.748 444.64C802.495 444.64 803.062 444.42 803.448 443.98C803.835 443.527 804.028 442.927 804.028 442.18V436.38H805.908V444.22C805.908 444.847 805.942 445.44 806.008 446H804.208C804.155 445.707 804.128 445.32 804.128 444.84ZM663.819 465.44V471H661.939V461.38H663.779V462.76C664.419 461.653 665.406 461.1 666.739 461.1C667.846 461.1 668.692 461.453 669.279 462.16C669.879 462.867 670.179 463.78 670.179 464.9V471H668.299V465.22C668.299 463.607 667.552 462.8 666.059 462.8C665.352 462.8 664.799 463.053 664.399 463.56C664.012 464.053 663.819 464.68 663.819 465.44ZM674.59 465.2H679.85C679.823 464.48 679.583 463.893 679.13 463.44C678.676 462.973 678.036 462.74 677.21 462.74C676.463 462.74 675.85 462.987 675.37 463.48C674.89 463.96 674.63 464.533 674.59 465.2ZM680.13 467.7L681.75 468.26C681.47 469.153 680.95 469.887 680.19 470.46C679.43 471.02 678.51 471.3 677.43 471.3C676.083 471.3 674.936 470.84 673.99 469.92C673.056 468.987 672.59 467.733 672.59 466.16C672.59 464.693 673.043 463.48 673.95 462.52C674.856 461.56 675.936 461.08 677.19 461.08C678.643 461.08 679.776 461.54 680.59 462.46C681.403 463.367 681.81 464.587 681.81 466.12C681.81 466.36 681.796 466.56 681.77 466.72H674.53C674.543 467.573 674.823 468.273 675.37 468.82C675.93 469.367 676.616 469.64 677.43 469.64C678.803 469.64 679.703 468.993 680.13 467.7ZM685.629 465.2H690.889C690.863 464.48 690.623 463.893 690.169 463.44C689.716 462.973 689.076 462.74 688.249 462.74C687.503 462.74 686.889 462.987 686.409 463.48C685.929 463.96 685.669 464.533 685.629 465.2ZM691.169 467.7L692.789 468.26C692.509 469.153 691.989 469.887 691.229 470.46C690.469 471.02 689.549 471.3 688.469 471.3C687.123 471.3 685.976 470.84 685.029 469.92C684.096 468.987 683.629 467.733 683.629 466.16C683.629 464.693 684.083 463.48 684.989 462.52C685.896 461.56 686.976 461.08 688.229 461.08C689.683 461.08 690.816 461.54 691.629 462.46C692.443 463.367 692.849 464.587 692.849 466.12C692.849 466.36 692.836 466.56 692.809 466.72H685.569C685.583 467.573 685.863 468.273 686.409 468.82C686.969 469.367 687.656 469.64 688.469 469.64C689.843 469.64 690.743 468.993 691.169 467.7ZM696.569 466.16C696.569 467.173 696.816 468 697.309 468.64C697.816 469.28 698.509 469.6 699.389 469.6C700.229 469.6 700.903 469.273 701.409 468.62C701.916 467.967 702.169 467.133 702.169 466.12C702.169 465.12 701.923 464.313 701.429 463.7C700.936 463.087 700.263 462.78 699.409 462.78C698.556 462.78 697.869 463.093 697.349 463.72C696.829 464.347 696.569 465.16 696.569 466.16ZM702.189 469.7V469.54C701.936 470.033 701.549 470.447 701.029 470.78C700.523 471.1 699.916 471.26 699.209 471.26C697.836 471.26 696.729 470.78 695.889 469.82C695.063 468.847 694.649 467.627 694.649 466.16C694.649 464.76 695.076 463.573 695.929 462.6C696.783 461.613 697.876 461.12 699.209 461.12C699.996 461.12 700.636 461.28 701.129 461.6C701.623 461.907 701.963 462.287 702.149 462.74V456.52H704.009V469.22C704.009 469.873 704.043 470.467 704.109 471H702.289C702.223 470.627 702.189 470.193 702.189 469.7ZM715.127 458.34V461.38H717.207V463.08H715.127V468.08C715.127 468.533 715.227 468.867 715.427 469.08C715.64 469.293 715.987 469.4 716.467 469.4C716.747 469.4 716.994 469.373 717.207 469.32V470.92C716.887 471.04 716.46 471.1 715.927 471.1C715.1 471.1 714.447 470.86 713.967 470.38C713.487 469.9 713.247 469.227 713.247 468.36V463.08H711.407V461.38H711.927C712.42 461.38 712.787 461.247 713.027 460.98C713.28 460.7 713.407 460.34 713.407 459.9V458.34H715.127ZM721.799 468.72C722.385 469.32 723.099 469.62 723.939 469.62C724.779 469.62 725.485 469.32 726.059 468.72C726.645 468.107 726.939 467.26 726.939 466.18C726.939 465.113 726.645 464.28 726.059 463.68C725.485 463.067 724.779 462.76 723.939 462.76C723.099 462.76 722.385 463.067 721.799 463.68C721.225 464.28 720.939 465.113 720.939 466.18C720.939 467.26 721.225 468.107 721.799 468.72ZM720.399 462.54C721.332 461.567 722.512 461.08 723.939 461.08C725.365 461.08 726.539 461.567 727.459 462.54C728.392 463.5 728.859 464.713 728.859 466.18C728.859 467.66 728.399 468.887 727.479 469.86C726.559 470.82 725.379 471.3 723.939 471.3C722.499 471.3 721.319 470.82 720.399 469.86C719.479 468.887 719.019 467.66 719.019 466.18C719.019 464.713 719.479 463.5 720.399 462.54ZM737.884 465.2H743.144C743.117 464.48 742.877 463.893 742.424 463.44C741.971 462.973 741.331 462.74 740.504 462.74C739.757 462.74 739.144 462.987 738.664 463.48C738.184 463.96 737.924 464.533 737.884 465.2ZM743.424 467.7L745.044 468.26C744.764 469.153 744.244 469.887 743.484 470.46C742.724 471.02 741.804 471.3 740.724 471.3C739.377 471.3 738.231 470.84 737.284 469.92C736.351 468.987 735.884 467.733 735.884 466.16C735.884 464.693 736.337 463.48 737.244 462.52C738.151 461.56 739.231 461.08 740.484 461.08C741.937 461.08 743.071 461.54 743.884 462.46C744.697 463.367 745.104 464.587 745.104 466.12C745.104 466.36 745.091 466.56 745.064 466.72H737.824C737.837 467.573 738.117 468.273 738.664 468.82C739.224 469.367 739.911 469.64 740.724 469.64C742.097 469.64 742.997 468.993 743.424 467.7ZM746.206 471L749.786 466.1L746.326 461.38H748.606L750.966 464.76L753.286 461.38H755.506L752.086 466.1C752.286 466.353 752.88 467.173 753.866 468.56C754.853 469.933 755.44 470.747 755.626 471H753.366L750.886 467.46L748.446 471H746.206ZM761.475 462.82C760.662 462.82 759.968 463.113 759.395 463.7C758.835 464.287 758.555 465.113 758.555 466.18C758.555 467.233 758.835 468.06 759.395 468.66C759.968 469.26 760.668 469.56 761.495 469.56C762.295 469.56 762.902 469.36 763.315 468.96C763.742 468.56 764.028 468.1 764.175 467.58L765.835 468.3C765.568 469.1 765.062 469.8 764.315 470.4C763.582 471 762.642 471.3 761.495 471.3C760.095 471.3 758.935 470.813 758.015 469.84C757.095 468.867 756.635 467.647 756.635 466.18C756.635 464.687 757.095 463.467 758.015 462.52C758.935 461.56 760.088 461.08 761.475 461.08C762.648 461.08 763.595 461.38 764.315 461.98C765.048 462.58 765.528 463.3 765.755 464.14L764.055 464.86C763.908 464.3 763.628 463.82 763.215 463.42C762.802 463.02 762.222 462.82 761.475 462.82ZM769.363 465.2H774.623C774.596 464.48 774.356 463.893 773.903 463.44C773.45 462.973 772.81 462.74 771.983 462.74C771.236 462.74 770.623 462.987 770.143 463.48C769.663 463.96 769.403 464.533 769.363 465.2ZM774.903 467.7L776.523 468.26C776.243 469.153 775.723 469.887 774.963 470.46C774.203 471.02 773.283 471.3 772.203 471.3C770.856 471.3 769.71 470.84 768.763 469.92C767.83 468.987 767.363 467.733 767.363 466.16C767.363 464.693 767.816 463.48 768.723 462.52C769.63 461.56 770.71 461.08 771.963 461.08C773.416 461.08 774.55 461.54 775.363 462.46C776.176 463.367 776.583 464.587 776.583 466.12C776.583 466.36 776.57 466.56 776.543 466.72H769.303C769.316 467.573 769.596 468.273 770.143 468.82C770.703 469.367 771.39 469.64 772.203 469.64C773.576 469.64 774.476 468.993 774.903 467.7ZM781.063 471H779.183V456.52H781.063V471Z" fill="white"/>
<path d="M690.398 256.701C691.362 256.702 692.195 256.99 692.897 257.564C693.626 258.111 694.25 258.854 694.77 259.792C695.315 260.731 695.77 261.812 696.133 263.036C696.496 264.261 696.794 265.55 697.027 266.905C697.259 268.233 697.44 269.587 697.568 270.968C697.697 272.322 697.787 273.598 697.837 274.796C697.888 275.994 697.913 277.075 697.911 278.038C697.936 279.002 697.948 279.757 697.948 280.304L697.01 280.303L695.536 272.059C695.406 271.929 695.106 271.85 694.638 271.823C694.195 271.797 693.661 271.809 693.036 271.861C692.437 271.912 691.773 271.989 691.044 272.093C690.34 272.17 689.663 272.234 689.012 272.285C688.387 272.311 687.814 272.323 687.293 272.322C686.773 272.296 686.395 272.204 686.161 272.047L686.151 280.29L684.159 280.287C684.159 280.209 684.159 280.066 684.159 279.858C684.185 279.623 684.199 279.389 684.199 279.154C684.199 278.92 684.213 278.699 684.239 278.49C684.265 278.282 684.278 278.139 684.279 278.061C684.437 276.551 684.556 275.027 684.636 273.491C684.742 271.929 684.861 270.418 684.993 268.96C685.125 267.502 685.296 266.109 685.506 264.781C685.742 263.453 686.069 262.256 686.487 261.189C686.905 260.095 687.427 259.171 688.052 258.417C688.678 257.636 689.46 257.065 690.398 256.701ZM691.021 258.499C690.344 258.498 689.771 258.745 689.301 259.239C688.858 259.707 688.493 260.332 688.205 261.112C687.918 261.867 687.696 262.713 687.538 263.651C687.381 264.588 687.276 265.512 687.222 266.424C687.169 267.309 687.129 268.142 687.102 268.924C687.101 269.679 687.101 270.265 687.1 270.681C688.376 270.683 689.678 270.593 691.007 270.413C692.335 270.206 693.585 269.999 694.757 269.792C694.784 269.688 694.797 269.519 694.797 269.285C694.823 269.05 694.837 268.79 694.837 268.503C694.863 268.217 694.877 267.944 694.877 267.683C694.903 267.423 694.917 267.253 694.917 267.175C694.918 266.316 694.867 265.496 694.764 264.714C694.686 263.933 694.505 263.177 694.219 262.448C693.96 261.692 693.57 260.989 693.05 260.337C692.556 259.686 691.88 259.073 691.021 258.499ZM701.04 250.698C701.405 250.751 701.717 250.856 701.977 251.012C702.263 251.143 702.485 251.39 702.64 251.755C702.64 252.25 702.652 252.94 702.677 253.825C702.728 254.685 702.766 255.688 702.79 256.833C702.841 257.979 702.892 259.216 702.942 260.545C702.993 261.873 703.043 263.214 703.093 264.568C703.144 265.922 703.181 267.264 703.206 268.592C703.256 269.92 703.294 271.157 703.318 272.303C703.369 273.449 703.407 274.464 703.432 275.35C703.457 276.235 703.482 276.912 703.507 277.381C703.507 277.433 703.494 277.524 703.468 277.655C703.468 277.785 703.455 277.941 703.428 278.123C703.428 278.306 703.415 278.488 703.389 278.67C703.389 278.826 703.388 278.944 703.388 279.022C703.362 279.178 703.349 279.373 703.349 279.608C703.348 279.816 703.322 280.024 703.27 280.232C703.217 280.441 703.126 280.636 702.995 280.818C702.891 280.974 702.709 281.065 702.448 281.091L701.785 280.27C701.759 280.244 701.721 279.762 701.67 278.824C701.645 277.861 701.594 276.624 701.518 275.113C701.468 273.577 701.418 271.858 701.368 269.957C701.318 268.03 701.256 266.089 701.18 264.136C701.13 262.183 701.08 260.308 701.031 258.511C700.981 256.714 700.943 255.164 700.919 253.862C700.919 253.758 700.919 253.55 700.92 253.237C700.946 252.925 700.96 252.612 700.96 252.3C700.986 251.961 701 251.649 701 251.362C701.027 251.05 701.04 250.829 701.04 250.698ZM707.104 250.706C707.469 250.758 707.781 250.863 708.041 251.02C708.328 251.15 708.549 251.398 708.704 251.762C708.704 252.257 708.716 252.947 708.741 253.833C708.792 254.692 708.83 255.695 708.854 256.841C708.905 257.987 708.956 259.224 709.006 260.552C709.057 261.88 709.107 263.221 709.157 264.576C709.208 265.93 709.245 267.271 709.27 268.599C709.32 269.927 709.358 271.164 709.382 272.31C709.433 273.456 709.471 274.472 709.496 275.357C709.521 276.243 709.546 276.92 709.572 277.389C709.571 277.441 709.558 277.532 709.532 277.662C709.532 277.792 709.519 277.948 709.493 278.131C709.492 278.313 709.479 278.495 709.453 278.677C709.453 278.834 709.452 278.951 709.452 279.029C709.426 279.185 709.413 279.381 709.413 279.615C709.412 279.823 709.386 280.032 709.334 280.24C709.281 280.448 709.19 280.643 709.06 280.825C708.955 280.982 708.773 281.073 708.512 281.098L707.849 280.277C707.823 280.251 707.785 279.769 707.734 278.832C707.709 277.868 707.658 276.631 707.582 275.121C707.532 273.584 707.482 271.865 707.432 269.964C707.382 268.037 707.32 266.097 707.244 264.144C707.194 262.19 707.144 260.315 707.095 258.518C707.045 256.721 707.008 255.172 706.983 253.87C706.983 253.766 706.983 253.557 706.984 253.245C707.01 252.932 707.024 252.62 707.024 252.307C707.05 251.969 707.064 251.656 707.064 251.37C707.091 251.057 707.104 250.836 707.104 250.706ZM729.448 265.928C729.761 265.929 730.021 265.916 730.229 265.89C730.464 265.865 730.659 265.995 730.815 266.282C730.891 267.454 730.981 268.652 731.084 269.876C731.187 271.074 731.289 272.285 731.392 273.509C731.495 274.733 731.558 275.97 731.583 277.22C731.633 278.444 731.645 279.642 731.617 280.814C731.617 280.97 731.578 281.061 731.5 281.087C731.422 281.139 731.304 281.152 731.148 281.126C731.018 281.126 730.849 281.112 730.64 281.086C730.458 281.086 730.25 281.112 730.015 281.164L729.448 265.928ZM727.191 258.934C727.191 258.751 727.204 258.556 727.231 258.348C727.257 258.113 727.309 257.905 727.388 257.723C727.492 257.541 727.61 257.385 727.74 257.254C727.896 257.124 728.079 257.06 728.287 257.06C728.599 257.06 728.912 257.074 729.224 257.1C729.537 257.126 729.836 257.192 730.123 257.296C730.409 257.375 730.643 257.518 730.825 257.727C731.007 257.91 731.098 258.183 731.098 258.548C731.097 259.173 730.862 259.732 730.393 260.226C729.923 260.695 729.35 260.928 728.673 260.928C728.152 260.927 727.775 260.731 727.541 260.34C727.307 259.923 727.19 259.454 727.191 258.934ZM729.456 259.132C729.378 259.131 729.339 259.197 729.339 259.327C729.339 259.457 729.378 259.522 729.456 259.522C729.56 259.522 729.612 259.457 729.612 259.327C729.613 259.197 729.561 259.132 729.456 259.132ZM734.205 280.895C734.153 280.478 734.102 279.879 734.051 279.098C734.026 278.291 733.988 277.392 733.937 276.403C733.912 275.387 733.887 274.332 733.863 273.239C733.838 272.145 733.813 271.103 733.788 270.113C733.763 269.124 733.725 268.238 733.674 267.457C733.649 266.65 733.598 266.038 733.52 265.621C733.52 265.595 733.507 265.53 733.481 265.426C733.482 265.321 733.469 265.204 733.443 265.074C733.443 264.944 733.443 264.84 733.443 264.761C733.443 264.657 733.443 264.579 733.444 264.527C733.835 264.215 734.16 264.111 734.42 264.216C734.707 264.32 734.941 264.555 735.123 264.92C735.305 265.259 735.434 265.688 735.512 266.209C735.589 266.73 735.641 267.251 735.666 267.772C735.718 268.293 735.743 268.775 735.742 269.217C735.742 269.634 735.742 269.934 735.741 270.116C735.794 269.673 735.873 269.152 735.978 268.554C736.083 267.955 736.24 267.343 736.449 266.718C736.658 266.094 736.906 265.482 737.193 264.883C737.506 264.259 737.885 263.712 738.328 263.244C738.771 262.776 739.266 262.412 739.814 262.152C740.387 261.892 741.038 261.789 741.767 261.842C742.913 261.895 743.85 262.209 744.578 262.783C745.333 263.357 745.918 264.126 746.333 265.09C746.775 266.054 747.086 267.161 747.267 268.411C747.474 269.661 747.602 270.99 747.653 272.396C747.729 273.802 747.753 275.235 747.726 276.693C747.698 278.125 747.683 279.505 747.681 280.834C747.447 280.885 747.213 280.976 746.978 281.106C746.743 281.21 746.548 281.249 746.392 281.223C746.236 281.222 746.119 281.118 746.041 280.91C745.989 280.675 746.015 280.233 746.12 279.582C746.147 279.113 746.187 278.397 746.24 277.433C746.32 276.444 746.347 275.35 746.322 274.152C746.324 272.954 746.26 271.717 746.132 270.441C746.003 269.165 745.757 268.006 745.394 266.964C745.056 265.895 744.563 265.035 743.912 264.384C743.262 263.706 742.416 263.366 741.375 263.365C740.306 263.806 739.407 264.639 738.676 265.862C737.972 267.085 737.397 268.516 736.952 270.156C736.534 271.796 736.219 273.58 736.008 275.507C735.824 277.408 735.717 279.269 735.689 281.092C735.637 281.066 735.533 281.053 735.376 281.053C735.246 281.053 735.09 281.053 734.908 281.052C734.751 281.026 734.595 281 734.439 280.974C734.309 280.947 734.231 280.921 734.205 280.895Z" fill="white"/>
<path d="M683.333 285.028L748.692 285.108L748.689 287.1L683.33 287.021L683.333 285.028Z" fill="white"/>
<path d="M713.644 391V314.2L722.044 322.6H696.844V307H733.084V391H713.644Z" fill="white"/>
<circle cx="719.5" cy="324.5" r="236" stroke="#FF6F00" stroke-opacity="0.5" stroke-width="3"/>
<circle opacity="0.5" cx="719.5" cy="327.5" r="284" stroke="#FF6F00" stroke-opacity="0.35" stroke-width="3"/>
<defs>
<filter id="filter0_d_0_1" x="-35" y="335" width="164" height="164" filterUnits="userSpaceOnUse" color-interpolation-filters="sRGB">
<feFlood flood-opacity="0" result="BackgroundImageFix"/>
<feColorMatrix in="SourceAlpha" type="matrix" values="0 0 0 0 0 0 0 0 0 0 0 0 0 0 0 0 0 0 127 0" result="hardAlpha"/>
<feOffset dy="4"/>
<feGaussianBlur stdDeviation="2"/>
<feComposite in2="hardAlpha" operator="out"/>
<feColorMatrix type="matrix" values="0 0 0 0 0 0 0 0 0 0 0 0 0 0 0 0 0 0 0.25 0"/>
<feBlend mode="normal" in2="BackgroundImageFix" result="effect1_dropShadow_0_1"/>
<feBlend mode="normal" in="SourceGraphic" in2="effect1_dropShadow_0_1" result="shape"/>
</filter>
<filter id="filter1_d_0_1" x="236" y="135" width="159" height="158" filterUnits="userSpaceOnUse" color-interpolation-filters="sRGB">
<feFlood flood-opacity="0" result="BackgroundImageFix"/>
<feColorMatrix in="SourceAlpha" type="matrix" values="0 0 0 0 0 0 0 0 0 0 0 0 0 0 0 0 0 0 127 0" result="hardAlpha"/>
<feOffset dy="4"/>
<feGaussianBlur stdDeviation="2"/>
<feComposite in2="hardAlpha" operator="out"/>
<feColorMatrix type="matrix" values="0 0 0 0 0 0 0 0 0 0 0 0 0 0 0 0 0 0 0.25 0"/>
<feBlend mode="normal" in2="BackgroundImageFix" result="effect1_dropShadow_0_1"/>
<feBlend mode="normal" in="SourceGraphic" in2="effect1_dropShadow_0_1" result="shape"/>
</filter>
</defs>
</svg>
