<svg width="1339" height="550" viewBox="0 0 1339 550" fill="none" xmlns="http://www.w3.org/2000/svg">
<ellipse cx="669.5" cy="321" rx="321.5" ry="321" fill="url(#paint0_linear_0_1)"/>
<path d="M30.04 561.48H60.63V590.23H0.14V429.23H30.04V561.48ZM129.81 457.75H99.2197V495.24H122.68V523.99H99.2197V561.48H129.81V590.23H69.3197V429.23H129.81V457.75ZM207.083 429.23V457.75H186.843V590.23H156.943V457.75H136.703V429.23H207.083ZM258.775 428.31C257.395 433.677 255.632 439.503 253.485 445.79C251.338 451.923 249.038 458.133 246.585 464.42C244.132 470.553 241.602 476.457 238.995 482.13H214.385C215.458 477.53 216.532 472.777 217.605 467.87C218.678 462.963 219.675 458.057 220.595 453.15C221.668 448.09 222.588 443.26 223.355 438.66C224.275 434.06 225.042 429.767 225.655 425.78H257.165L258.775 428.31ZM337.848 481.67H307.948V461.66C307.948 458.44 305.188 455.68 301.968 455.68H301.508C298.058 455.68 295.528 458.44 295.528 461.66V477.99C295.528 482.59 297.368 485.12 298.748 486.5L300.128 487.65L325.888 507.43C325.888 507.43 337.848 515.25 337.848 533.65V562.17C337.848 578.73 324.278 592.3 307.718 592.3H295.528C278.968 592.3 265.628 578.73 265.628 562.17V533.65H295.528V557.57C295.528 560.79 298.058 563.55 301.508 563.55H301.968C305.188 563.55 307.948 560.79 307.948 557.57V536.64C307.718 535.72 307.488 531.81 304.268 529.28L275.978 507.43C264.248 498.46 265.628 485.58 265.628 485.58V457.06C265.628 440.5 278.968 427.16 295.528 427.16H307.718C324.278 427.16 337.848 440.5 337.848 457.06V481.67ZM440.196 429.23H467.566L448.016 590.23H420.646L420.876 589.77C420.876 588.85 414.436 526.75 414.436 526.75C414.436 526.75 407.996 588.85 408.226 589.77V590.23H380.856L361.536 429.23H388.906L396.726 494.32L403.166 429.23H425.706L432.376 494.32L440.196 429.23ZM472.718 457.06C472.718 440.5 486.058 427.16 502.618 427.16H514.808C531.368 427.16 544.938 440.5 544.938 457.06V562.17C544.938 578.73 531.368 592.3 514.808 592.3H502.618C486.058 592.3 472.718 578.73 472.718 562.17V457.06ZM502.618 557.57C502.618 560.79 505.148 563.55 508.368 563.55H509.058C512.278 563.55 514.808 560.79 514.808 557.57V461.66C514.808 458.44 512.278 455.68 509.058 455.68H508.368C505.148 455.68 502.618 458.44 502.618 461.66V557.57ZM607.863 510.19C617.523 510.19 625.573 518.24 625.573 528.13V590H595.673V533.65C595.673 528.59 591.533 524.68 586.473 524.68H583.253V590H553.353V429.23H601.883C614.993 429.23 625.573 439.58 625.573 452.69V492.02C625.573 502.14 617.293 510.19 607.403 510.19H607.863ZM595.673 463.73C595.673 460.51 592.913 457.75 589.693 457.75H583.253V495.93H588.543C592.453 495.93 595.673 492.71 595.673 488.8V463.73ZM707.122 590H679.982L664.112 523.99V590.23H634.212V429.23H664.112V495.24L679.982 429H707.122L687.572 509.73L707.122 590ZM800.95 429.23V457.75H780.71V590.23H750.81V457.75H730.57V429.23H800.95ZM808.509 457.06C808.509 440.5 821.849 427.16 838.409 427.16H850.599C867.159 427.16 880.729 440.5 880.729 457.06V562.17C880.729 578.73 867.159 592.3 850.599 592.3H838.409C821.849 592.3 808.509 578.73 808.509 562.17V457.06ZM838.409 557.57C838.409 560.79 840.939 563.55 844.159 563.55H844.849C848.069 563.55 850.599 560.79 850.599 557.57V461.66C850.599 458.44 848.069 455.68 844.849 455.68H844.159C840.939 455.68 838.409 458.44 838.409 461.66V557.57ZM961.364 457.06V483.51H931.234V461.66C931.234 458.44 928.704 455.68 925.484 455.68H924.794C921.574 455.68 919.044 458.44 919.044 461.66V557.57C919.044 560.79 921.574 563.55 924.794 563.55H925.484C928.704 563.55 931.234 560.79 931.234 557.57V533.19H924.564V504.44H961.364V562.17C961.364 578.73 947.794 592.3 931.234 592.3H919.044C902.484 592.3 889.144 578.73 889.144 562.17V457.06C889.144 440.5 902.484 427.16 919.044 427.16H931.234C947.794 427.16 961.364 440.5 961.364 457.06ZM1030.27 457.75H999.679V495.24H1023.14V523.99H999.679V561.48H1030.27V590.23H969.779V429.23H1030.27V457.75ZM1107.54 429.23V457.75H1087.3V590.23H1057.4V457.75H1037.16V429.23H1107.54ZM1158.08 429.23H1188.21V590.23H1158.08V523.99H1146.12V590.23H1116.22V429.23H1146.12V495.24H1158.08V429.23ZM1257.35 457.75H1226.76V495.24H1250.22V523.99H1226.76V561.48H1257.35V590.23H1196.86V429.23H1257.35V457.75ZM1320.55 510.19C1330.21 510.19 1338.26 518.24 1338.26 528.13V590H1308.36V533.65C1308.36 528.59 1304.22 524.68 1299.16 524.68H1295.94V590H1266.04V429.23H1314.57C1327.68 429.23 1338.26 439.58 1338.26 452.69V492.02C1338.26 502.14 1329.98 510.19 1320.09 510.19H1320.55ZM1308.36 463.73C1308.36 460.51 1305.6 457.75 1302.38 457.75H1295.94V495.93H1301.23C1305.14 495.93 1308.36 492.71 1308.36 488.8V463.73Z" fill="white"/>
<defs>
<linearGradient id="paint0_linear_0_1" x1="669.5" y1="0" x2="669.5" y2="642" gradientUnits="userSpaceOnUse">
<stop stop-color="#FF6F00"/>
<stop offset="0.0001" stop-color="#C95700"/>
<stop offset="1" stop-color="#C85904"/>
</linearGradient>
</defs>
</svg>
