<svg width="187" height="48" viewBox="0 0 187 48" fill="none" xmlns="http://www.w3.org/2000/svg">
<path d="M42.0463 27.1C42.8463 27.92 43.8163 28.33 44.9563 28.33C46.0963 28.33 47.0563 27.92 47.8363 27.1C48.6363 26.28 49.0363 25.14 49.0363 23.68C49.0363 22.24 48.6363 21.12 47.8363 20.32C47.0563 19.5 46.0963 19.09 44.9563 19.09C43.8163 19.09 42.8463 19.5 42.0463 20.32C41.2663 21.12 40.8763 22.24 40.8763 23.68C40.8763 25.12 41.2663 26.26 42.0463 27.1ZM44.9563 15.94C47.1563 15.94 48.9663 16.67 50.3863 18.13C51.8263 19.59 52.5463 21.44 52.5463 23.68C52.5463 25.92 51.8263 27.78 50.3863 29.26C48.9663 30.72 47.1563 31.45 44.9563 31.45C42.7763 31.45 40.9663 30.72 39.5263 29.26C38.1063 27.78 37.3963 25.92 37.3963 23.68C37.3963 21.44 38.1063 19.59 39.5263 18.13C40.9663 16.67 42.7763 15.94 44.9563 15.94ZM58.6994 31H55.2494V16.39H58.6994V31ZM55.3694 12.85C54.9294 12.41 54.7094 11.88 54.7094 11.26C54.7094 10.64 54.9294 10.11 55.3694 9.67C55.8094 9.21 56.3394 8.98 56.9594 8.98C57.5994 8.98 58.1394 9.2 58.5794 9.64C59.0194 10.08 59.2394 10.62 59.2394 11.26C59.2394 11.88 59.0194 12.41 58.5794 12.85C58.1394 13.29 57.5994 13.51 56.9594 13.51C56.3394 13.51 55.8094 13.29 55.3694 12.85ZM66.0088 22.57V31H62.5288V16.39H65.9188V18.34C66.3788 17.54 66.9888 16.95 67.7488 16.57C68.5288 16.17 69.3588 15.97 70.2388 15.97C71.9588 15.97 73.2688 16.51 74.1688 17.59C75.0688 18.67 75.5188 20.06 75.5188 21.76V31H72.0388V22.36C72.0388 21.38 71.7988 20.6 71.3188 20.02C70.8388 19.42 70.0788 19.12 69.0388 19.12C68.0788 19.12 67.3288 19.45 66.7888 20.11C66.2688 20.75 66.0088 21.57 66.0088 22.57ZM85.5754 12.25C84.9954 12.25 84.4854 12.42 84.0454 12.76C83.6254 13.08 83.4154 13.65 83.4154 14.47V16.39H86.8054V19.42H83.4154V31H79.9054V19.42H77.3554V16.39H79.9054V14.38C79.9054 12.76 80.3754 11.48 81.3154 10.54C82.2554 9.6 83.4854 9.13 85.0054 9.13C85.8254 9.13 86.4354 9.23 86.8354 9.43V12.4C86.4954 12.3 86.0754 12.25 85.5754 12.25ZM92.4037 31H88.9237V9.28H92.4037V31ZM105.655 29.38C105.315 30.02 104.755 30.52 103.975 30.88C103.215 31.24 102.395 31.42 101.515 31.42C99.8145 31.42 98.4645 30.87 97.4645 29.77C96.4845 28.67 95.9945 27.28 95.9945 25.6V16.39H99.4745V24.97C99.4745 25.95 99.7145 26.75 100.195 27.37C100.675 27.99 101.415 28.3 102.415 28.3C103.395 28.3 104.145 28 104.665 27.4C105.205 26.8 105.475 26.01 105.475 25.03V16.39H108.955V28.33C108.955 29.21 109.005 30.1 109.105 31H105.775C105.695 30.56 105.655 30.02 105.655 29.38ZM115.141 22.09H122.311C122.271 21.17 121.941 20.4 121.321 19.78C120.721 19.16 119.851 18.85 118.711 18.85C117.671 18.85 116.831 19.18 116.191 19.84C115.551 20.48 115.201 21.23 115.141 22.09ZM122.701 25.9L125.641 26.83C125.221 28.17 124.431 29.28 123.271 30.16C122.131 31.02 120.721 31.45 119.041 31.45C116.961 31.45 115.191 30.74 113.731 29.32C112.291 27.9 111.571 26 111.571 23.62C111.571 21.38 112.271 19.54 113.671 18.1C115.091 16.66 116.761 15.94 118.681 15.94C120.921 15.94 122.671 16.63 123.931 18.01C125.191 19.37 125.821 21.21 125.821 23.53C125.821 24.15 125.791 24.52 125.731 24.64H115.051C115.091 25.74 115.491 26.65 116.251 27.37C117.031 28.09 117.961 28.45 119.041 28.45C120.921 28.45 122.141 27.6 122.701 25.9ZM131.967 22.57V31H128.487V16.39H131.877V18.34C132.337 17.54 132.947 16.95 133.707 16.57C134.487 16.17 135.317 15.97 136.197 15.97C137.917 15.97 139.227 16.51 140.127 17.59C141.027 18.67 141.477 20.06 141.477 21.76V31H137.997V22.36C137.997 21.38 137.757 20.6 137.277 20.02C136.797 19.42 136.037 19.12 134.997 19.12C134.037 19.12 133.287 19.45 132.747 20.11C132.227 20.75 131.967 21.57 131.967 22.57ZM151.413 19.15C150.293 19.15 149.343 19.56 148.563 20.38C147.783 21.18 147.393 22.28 147.393 23.68C147.393 25.1 147.783 26.22 148.563 27.04C149.363 27.86 150.333 28.27 151.473 28.27C152.493 28.27 153.303 28 153.903 27.46C154.523 26.9 154.933 26.27 155.133 25.57L158.193 26.68C157.793 27.98 157.013 29.1 155.853 30.04C154.713 30.98 153.253 31.45 151.473 31.45C149.333 31.45 147.533 30.71 146.073 29.23C144.633 27.75 143.913 25.9 143.913 23.68C143.913 21.44 144.623 19.59 146.043 18.13C147.483 16.67 149.263 15.94 151.383 15.94C153.203 15.94 154.683 16.41 155.823 17.35C156.983 18.29 157.733 19.42 158.073 20.74L154.953 21.88C154.753 21.12 154.363 20.48 153.783 19.96C153.223 19.42 152.433 19.15 151.413 19.15ZM162.907 22.09H170.077C170.037 21.17 169.707 20.4 169.087 19.78C168.487 19.16 167.617 18.85 166.477 18.85C165.437 18.85 164.597 19.18 163.957 19.84C163.317 20.48 162.967 21.23 162.907 22.09ZM170.467 25.9L173.407 26.83C172.987 28.17 172.197 29.28 171.037 30.16C169.897 31.02 168.487 31.45 166.807 31.45C164.727 31.45 162.957 30.74 161.497 29.32C160.057 27.9 159.337 26 159.337 23.62C159.337 21.38 160.037 19.54 161.437 18.1C162.857 16.66 164.527 15.94 166.447 15.94C168.687 15.94 170.437 16.63 171.697 18.01C172.957 19.37 173.587 21.21 173.587 23.53C173.587 24.15 173.557 24.52 173.497 24.64H162.817C162.857 25.74 163.257 26.65 164.017 27.37C164.797 28.09 165.727 28.45 166.807 28.45C168.687 28.45 169.907 27.6 170.467 25.9ZM174.963 27.04L177.993 26.2C178.053 26.9 178.343 27.49 178.863 27.97C179.383 28.45 180.083 28.69 180.963 28.69C181.643 28.69 182.173 28.53 182.553 28.21C182.953 27.89 183.153 27.49 183.153 27.01C183.153 26.17 182.583 25.63 181.443 25.39L179.283 24.91C178.023 24.63 177.053 24.11 176.373 23.35C175.693 22.59 175.353 21.69 175.353 20.65C175.353 19.37 175.873 18.27 176.913 17.35C177.953 16.41 179.223 15.94 180.723 15.94C181.683 15.94 182.533 16.08 183.273 16.36C184.013 16.64 184.583 17.01 184.983 17.47C185.403 17.91 185.723 18.34 185.943 18.76C186.163 19.18 186.303 19.6 186.363 20.02L183.423 20.86C183.343 20.3 183.083 19.8 182.643 19.36C182.223 18.9 181.583 18.67 180.723 18.67C180.123 18.67 179.623 18.84 179.223 19.18C178.823 19.5 178.623 19.89 178.623 20.35C178.623 21.17 179.113 21.68 180.093 21.88L182.313 22.33C183.673 22.63 184.713 23.17 185.433 23.95C186.153 24.73 186.513 25.67 186.513 26.77C186.513 27.99 186.023 29.08 185.043 30.04C184.083 30.98 182.733 31.45 180.993 31.45C179.993 31.45 179.093 31.3 178.293 31C177.513 30.7 176.893 30.32 176.433 29.86C175.993 29.38 175.643 28.91 175.383 28.45C175.143 27.97 175.003 27.5 174.963 27.04Z" fill="white"/>
<path d="M43.617 39.0102C40.4439 42.8882 36.12 45.7056 31.2424 47.0733C26.3648 48.441 21.174 48.2917 16.3867 46.6458C11.5994 45 7.45184 41.9389 4.51657 37.8851C1.5813 33.8313 0.00314838 28.9849 4.70316e-06 24.0149C-0.00313897 19.0449 1.56888 14.1965 4.49902 10.1392C7.42916 6.08184 11.5729 3.01568 16.3581 1.36403C21.1432 -0.287614 26.3338 -0.443275 31.2132 0.918542C36.0926 2.28036 40.42 5.09248 43.598 8.96664L37.5503 13.7272C35.3787 11.0799 32.4216 9.15825 29.0874 8.22767C25.7531 7.2971 22.2062 7.40346 18.9363 8.53209C15.6665 9.66072 12.8349 11.7559 10.8327 14.5284C8.8304 17.3009 7.75619 20.614 7.75834 24.0102C7.76048 27.4063 8.83889 30.7181 10.8447 33.4881C12.8504 36.2582 15.6846 38.35 18.9559 39.4747C22.2272 40.5993 25.7743 40.7014 29.1073 39.7667C32.4403 38.8321 35.395 36.9069 37.5633 34.2569L43.617 39.0102Z" fill="white"/>
<ellipse cx="24.5" cy="24" rx="4.9" ry="4.8" fill="white"/>
</svg>
