<svg width="440" height="397" viewBox="0 0 440 397" fill="none" xmlns="http://www.w3.org/2000/svg">
<rect width="440" height="397" fill="#FF6F00"/>
<path d="M417 0C417 52.2476 396.192 102.355 359.154 139.3C322.115 176.245 271.88 197 219.5 197C167.12 197 116.885 176.245 79.8464 139.3C42.808 102.355 22 52.2477 22 2.97462e-05L219.5 0L417 0Z" fill="url(#paint0_linear_0_1)"/>
<path d="M11.1 335.7H21.075V345.075H1.35V292.575H11.1V335.7ZM43.6336 301.875H33.6586V314.1H41.3086V323.475H33.6586V335.7H43.6336V345.075H23.9086V292.575H43.6336V301.875ZM68.8313 292.575V301.875H62.2313V345.075H52.4813V301.875H45.8813V292.575H68.8313ZM85.6875 292.275C85.2375 294.025 84.6625 295.925 83.9625 297.975C83.2625 299.975 82.5125 302 81.7125 304.05C80.9125 306.05 80.0875 307.975 79.2375 309.825H71.2125C71.5625 308.325 71.9125 306.775 72.2625 305.175C72.6125 303.575 72.9375 301.975 73.2375 300.375C73.5875 298.725 73.8875 297.15 74.1375 295.65C74.4375 294.15 74.6875 292.75 74.8875 291.45H85.1625L85.6875 292.275ZM111.472 309.675H101.722V303.15C101.722 302.1 100.822 301.2 99.7723 301.2H99.6223C98.4973 301.2 97.6723 302.1 97.6723 303.15V308.475C97.6723 309.975 98.2723 310.8 98.7223 311.25L99.1723 311.625L107.572 318.075C107.572 318.075 111.472 320.625 111.472 326.625V335.925C111.472 341.325 107.047 345.75 101.647 345.75H97.6723C92.2723 345.75 87.9223 341.325 87.9223 335.925V326.625H97.6723V334.425C97.6723 335.475 98.4973 336.375 99.6223 336.375H99.7723C100.822 336.375 101.722 335.475 101.722 334.425V327.6C101.647 327.3 101.572 326.025 100.522 325.2L91.2973 318.075C87.4723 315.15 87.9223 310.95 87.9223 310.95V301.65C87.9223 296.25 92.2723 291.9 97.6723 291.9H101.647C107.047 291.9 111.472 296.25 111.472 301.65V309.675ZM144.847 292.575H153.772L147.397 345.075H138.472L138.547 344.925C138.547 344.625 136.447 324.375 136.447 324.375C136.447 324.375 134.347 344.625 134.422 344.925V345.075H125.497L119.197 292.575H128.122L130.672 313.8L132.772 292.575H140.122L142.297 313.8L144.847 292.575ZM155.452 301.65C155.452 296.25 159.802 291.9 165.202 291.9H169.177C174.577 291.9 179.002 296.25 179.002 301.65V335.925C179.002 341.325 174.577 345.75 169.177 345.75H165.202C159.802 345.75 155.452 341.325 155.452 335.925V301.65ZM165.202 334.425C165.202 335.475 166.027 336.375 167.077 336.375H167.302C168.352 336.375 169.177 335.475 169.177 334.425V303.15C169.177 302.1 168.352 301.2 167.302 301.2H167.077C166.027 301.2 165.202 302.1 165.202 303.15V334.425ZM199.521 318.975C202.671 318.975 205.296 321.6 205.296 324.825V345H195.546V326.625C195.546 324.975 194.196 323.7 192.546 323.7H191.496V345H181.746V292.575H197.571C201.846 292.575 205.296 295.95 205.296 300.225V313.05C205.296 316.35 202.596 318.975 199.371 318.975H199.521ZM195.546 303.825C195.546 302.775 194.646 301.875 193.596 301.875H191.496V314.325H193.221C194.496 314.325 195.546 313.275 195.546 312V303.825ZM231.888 345H223.038L217.863 323.475V345.075H208.113V292.575H217.863V314.1L223.038 292.5H231.888L225.513 318.825L231.888 345ZM262.484 292.575V301.875H255.884V345.075H246.134V301.875H239.534V292.575H262.484ZM264.949 301.65C264.949 296.25 269.299 291.9 274.699 291.9H278.674C284.074 291.9 288.499 296.25 288.499 301.65V335.925C288.499 341.325 284.074 345.75 278.674 345.75H274.699C269.299 345.75 264.949 341.325 264.949 335.925V301.65ZM274.699 334.425C274.699 335.475 275.524 336.375 276.574 336.375H276.799C277.849 336.375 278.674 335.475 278.674 334.425V303.15C278.674 302.1 277.849 301.2 276.799 301.2H276.574C275.524 301.2 274.699 302.1 274.699 303.15V334.425ZM314.793 301.65V310.275H304.968V303.15C304.968 302.1 304.143 301.2 303.093 301.2H302.868C301.818 301.2 300.993 302.1 300.993 303.15V334.425C300.993 335.475 301.818 336.375 302.868 336.375H303.093C304.143 336.375 304.968 335.475 304.968 334.425V326.475H302.793V317.1H314.793V335.925C314.793 341.325 310.368 345.75 304.968 345.75H300.993C295.593 345.75 291.243 341.325 291.243 335.925V301.65C291.243 296.25 295.593 291.9 300.993 291.9H304.968C310.368 291.9 314.793 296.25 314.793 301.65ZM337.262 301.875H327.287V314.1H334.937V323.475H327.287V335.7H337.262V345.075H317.537V292.575H337.262V301.875ZM362.459 292.575V301.875H355.859V345.075H346.109V301.875H339.509V292.575H362.459ZM378.94 292.575H388.765V345.075H378.94V323.475H375.04V345.075H365.29V292.575H375.04V314.1H378.94V292.575ZM411.309 301.875H401.334V314.1H408.984V323.475H401.334V335.7H411.309V345.075H391.584V292.575H411.309V301.875ZM431.918 318.975C435.068 318.975 437.693 321.6 437.693 324.825V345H427.943V326.625C427.943 324.975 426.593 323.7 424.943 323.7H423.893V345H414.143V292.575H429.968C434.243 292.575 437.693 295.95 437.693 300.225V313.05C437.693 316.35 434.993 318.975 431.768 318.975H431.918ZM427.943 303.825C427.943 302.775 427.043 301.875 425.993 301.875H423.893V314.325H425.618C426.893 314.325 427.943 313.275 427.943 312V303.825Z" fill="white"/>
<defs>
<linearGradient id="paint0_linear_0_1" x1="219.5" y1="-197" x2="219.5" y2="197" gradientUnits="userSpaceOnUse">
<stop stop-color="#FF6F00"/>
<stop offset="0.0001" stop-color="#C95700"/>
<stop offset="1" stop-color="#C85904"/>
</linearGradient>
</defs>
</svg>
