<svg width="200" height="200" viewBox="0 0 200 200" fill="none" xmlns="http://www.w3.org/2000/svg">
<g clip-path="url(#clip0_0_1)">
<path d="M81.3389 83.8497C81.1664 83.6117 77.0105 78.02 68.0762 78.02C59.1419 78.02 54.9864 83.6117 54.8139 83.8499L54.1591 84.7532L56.8263 97.2654V141H79.3263V97.2654L81.9936 84.753L81.3389 83.8497ZM71.8267 135.136H64.3268V117.545H71.8267V135.136ZM71.8267 111.682H64.3268V99.9546H71.8267V111.682ZM72.3999 94.0908H63.7533L62.0359 86.035C63.0156 85.1785 65.0046 83.8838 68.0764 83.8838C71.1483 83.8838 73.1375 85.1785 74.1174 86.035L72.3999 94.0908Z" fill="white"/>
<path d="M127.051 64.0804C126.722 63.7097 118.814 55 102.281 55C85.7513 55 77.8257 63.7067 77.4964 64.0775L76.0797 65.6722L91.0225 84.1884V141H113.522V84.1884L128.464 65.6744L127.051 64.0804ZM106.022 135.136H98.5225V103.864H106.022V135.136ZM106.022 98H98.5225V86.2728H106.022V98ZM107.705 80.4091H106.022V73.5683H98.5225V80.4091H96.8405L85.2391 66.0337C87.7606 64.1084 93.3379 60.8638 102.281 60.8638C111.22 60.8638 116.781 64.0984 119.307 66.0322L107.705 80.4091Z" fill="white"/>
<path d="M124.164 77.5529L125.13 89.2991V141H147.63V89.3285L149.841 68.9497L124.164 77.5529ZM140.131 135.136H132.63V109.727H140.13V135.136H140.131ZM140.131 103.864H132.63V92.1364H140.13V103.864H140.131ZM140.435 86.2728H132.397L131.989 81.3109L141.312 78.187L140.435 86.2728Z" fill="white"/>
</g>
<circle cx="100" cy="100" r="98.5" stroke="#FF6F00" stroke-width="3"/>
<defs>
<clipPath id="clip0_0_1">
<rect width="110" height="86" fill="white" transform="translate(47 55)"/>
</clipPath>
</defs>
</svg>
