<svg width="200" height="200" viewBox="0 0 200 200" fill="none" xmlns="http://www.w3.org/2000/svg">
<path d="M88.9091 71.1667H112.091C119.773 71.1667 126 77.0616 126 84.3333C126 91.6053 119.773 97.5 112.091 97.5M88.9091 71.1667V97.5M88.9091 71.1667H75M88.9091 71.1667V58M112.091 97.5H88.9091M112.091 97.5C119.773 97.5 126 103.395 126 110.667C126 117.939 119.773 123.833 112.091 123.833H88.9091M88.9091 97.5V123.833M88.9091 123.833H75M88.9091 123.833V137M102.818 71.1667V58M102.818 137V123.833" stroke="white" stroke-width="10" stroke-linecap="round" stroke-linejoin="round"/>
<circle cx="100" cy="100" r="98.5" stroke="#FF6F00" stroke-width="3"/>
</svg>

