<svg width="200" height="200" viewBox="0 0 200 200" fill="none" xmlns="http://www.w3.org/2000/svg">
<g clip-path="url(#clip0_0_1)">
<path d="M125.528 73.8622C117.018 69.5998 108.512 65.3288 100.009 61.0493L46.621 87.8443L55.756 92.5401L55 92.6695V142.833H59.5V96.7089L62.74 96.1147L64 96.7616V122.1C64 126.48 87.427 139.029 92.1205 141.501C94.5606 142.777 97.2461 143.429 99.9643 143.408C102.682 143.386 105.359 142.691 107.78 141.377C136 125.996 136 123.164 136 122.1V96.7616L153.343 87.8635C153.343 87.8635 136.243 79.2337 125.528 73.8622ZM131.5 121.29C123.238 127.146 114.631 132.431 105.733 137.112C103.936 138.088 101.951 138.605 99.9341 138.622C97.9172 138.639 95.9245 138.155 94.114 137.208C85.1836 132.684 76.6169 127.387 68.5 121.372V99.0664L100 115.229L131.5 99.0664V121.29ZM100 109.92L70.372 94.7156L99.4825 89.3729L98.7175 84.6435L63.3925 91.1314L57.079 87.8922L99.9955 66.3537C103.708 68.2368 138.349 85.5874 142.934 87.8874L100 109.92Z" fill="white"/>
</g>
<circle cx="100" cy="100" r="98.5" stroke="#FF6F00" stroke-width="3"/>
<defs>
<clipPath id="clip0_0_1">
<rect width="108" height="115" fill="white" transform="translate(46 47)"/>
</clipPath>
</defs>
</svg>
