<svg width="200" height="200" viewBox="0 0 200 200" fill="none" xmlns="http://www.w3.org/2000/svg">
<g clip-path="url(#clip0_0_1)">
<path d="M151.978 126.006C151.316 124.818 150.337 123.779 149.107 123.023L105.097 95.9703V92.1463C105.097 92.0146 105.161 91.8958 105.257 91.8118C105.651 91.778 106.172 91.7165 106.785 91.5989C108.04 91.3554 109.69 90.9074 111.347 89.8604C113.776 88.3124 115.79 86.2046 117.203 83.7129C118.615 81.2214 119.421 78.3406 119.42 75.3018C119.421 70.5204 117.431 66.1601 114.232 63.0288C111.036 59.8949 106.586 57.9478 101.706 57.9478C98.0486 57.9478 94.6215 59.0409 91.7979 60.9125C88.9729 62.7838 86.7325 65.4266 85.3842 68.5453C84.6548 70.2348 85.4629 72.1846 87.1875 72.8998C88.9128 73.6138 90.904 72.8242 91.6329 71.1348C92.4601 69.2171 93.8513 67.5753 95.5973 66.4203C97.3448 65.2657 99.4304 64.5937 101.706 64.5937C104.733 64.5937 107.445 65.7862 109.434 67.7306C111.417 69.6776 112.634 72.3343 112.635 75.3018C112.634 77.1943 112.141 78.9481 111.271 80.4864C110.4 82.022 109.15 83.3323 107.65 84.2868C107.065 84.6689 106.195 84.9489 105.492 85.0775C105.142 85.1433 104.838 85.1784 104.64 85.1938C104.541 85.2035 104.468 85.2078 104.43 85.2091H104.41L103.95 85.2148L103.499 85.3464C100.424 86.2381 98.3133 89.0039 98.3126 92.1464V96.0727L58.5559 123.242L58.5567 123.239C56.2855 124.791 54.9979 127.306 55 129.916C55 130.73 55.1259 131.555 55.383 132.354C56.471 135.747 59.6789 138.052 63.307 138.052H144.692C148.396 138.052 151.65 135.652 152.676 132.165V132.163C152.892 131.42 153 130.663 153 129.916C153 128.537 152.642 127.196 151.978 126.006ZM146.156 130.33V130.328C145.968 130.965 145.371 131.408 144.693 131.408H63.307C62.6419 131.408 62.0537 130.982 61.8552 130.363C61.8058 130.212 61.7846 130.063 61.7846 129.916C61.7859 129.437 62.0189 128.975 62.4354 128.692H62.4369L101.805 101.792L145.501 128.652C145.732 128.794 145.903 128.979 146.027 129.198C146.15 129.416 146.216 129.664 146.216 129.916C146.216 130.051 146.196 130.187 146.156 130.33Z" fill="white"/>
</g>
<circle cx="100" cy="100" r="98.5" stroke="#FF6F00" stroke-width="3"/>
<defs>
<clipPath id="clip0_0_1">
<rect width="98" height="96" fill="white" transform="translate(55 50)"/>
</clipPath>
</defs>
</svg>

