<svg width="200" height="200" viewBox="0 0 200 200" fill="none" xmlns="http://www.w3.org/2000/svg">
<path d="M58 90.9073V90.8437C57.9999 84.5656 59.8428 78.428 63.2962 73.2055C66.7496 67.9829 71.6587 63.9092 77.4043 61.4985C83.1498 59.0877 89.4743 58.4479 95.5799 59.6596C101.685 60.8714 107.299 63.8805 111.711 68.3073C115.183 66.5785 119.061 65.8516 122.916 66.207C126.771 66.5623 130.455 67.9861 133.558 70.321C136.662 72.6559 139.066 75.811 140.503 79.4377C141.941 83.0644 142.357 87.0216 141.706 90.872C142.664 90.9617 143.593 91.2496 144.436 91.7178C145.278 92.1859 146.016 92.8243 146.604 93.593C147.191 94.3618 147.615 95.2444 147.849 96.1858C148.083 97.1272 148.122 98.1071 147.964 99.0645C144.8 118.267 136.974 130.422 124.5 135.535V140.281C124.5 143.091 123.394 145.785 121.425 147.772C119.455 149.759 116.785 150.875 114 150.875H86C83.2152 150.875 80.5445 149.759 78.5754 147.772C76.6062 145.785 75.5 143.091 75.5 140.281V135.535C63.026 130.422 55.2 118.267 52.036 99.0645C51.8833 98.1325 51.9174 97.1792 52.1364 96.2608C52.3554 95.3424 52.7547 94.4777 53.3108 93.7177C53.8669 92.9578 54.5684 92.3182 55.3738 91.8366C56.1793 91.3551 57.0723 91.0415 58 90.9144V90.9073ZM65 90.8437H72C72 86.161 73.8437 81.6701 77.1256 78.3589C80.4075 75.0477 84.8587 73.1875 89.5 73.1875C94.1413 73.1875 98.5925 75.0477 101.874 78.3589C105.156 81.6701 107 86.161 107 90.8437H114C114 84.2879 111.419 78.0006 106.824 73.3649C102.229 68.7293 95.9978 66.125 89.5 66.125C83.0022 66.125 76.7705 68.7293 72.1759 73.3649C67.5812 78.0006 65 84.2879 65 90.8437ZM79 90.8437H100C100 88.0341 98.8937 85.3395 96.9246 83.3528C94.9555 81.3661 92.2848 80.25 89.5 80.25C86.7152 80.25 84.0445 81.3661 82.0754 83.3528C80.1062 85.3395 79 88.0341 79 90.8437ZM127.062 90.8437H134.559C135.087 88.7566 135.137 86.5752 134.703 84.4659C134.269 82.3567 133.364 80.3751 132.056 78.6722C130.749 76.9693 129.073 75.5901 127.157 74.6396C125.241 73.6891 123.135 73.1925 121 73.1875C119.32 73.1875 117.724 73.4841 116.24 74.0279C117.479 76.0337 118.501 78.1948 119.285 80.4619C120.618 80.1282 122.019 80.1969 123.314 80.6594C124.609 81.1219 125.741 81.9579 126.569 83.0635C127.397 84.1692 127.886 85.4959 127.973 86.879C128.061 88.2621 127.744 89.6407 127.062 90.8437ZM117.5 136.75H82.5V140.281C82.5 141.218 82.8687 142.116 83.5251 142.778C84.1815 143.44 85.0717 143.812 86 143.812H114C114.928 143.812 115.818 143.44 116.475 142.778C117.131 142.116 117.5 141.218 117.5 140.281V136.75ZM80.036 129.687H119.964C131.066 126.086 138.094 115.901 141.062 97.9062H58.938C61.906 115.901 68.934 126.086 80.036 129.687Z" fill="white"/>
<circle cx="100" cy="100" r="98.5" stroke="#FF6F00" stroke-width="3"/>
</svg>
