<svg width="200" height="200" viewBox="0 0 200 200" fill="none" xmlns="http://www.w3.org/2000/svg">
<path d="M60.875 103C60.8701 109.633 62.8315 116.138 66.5427 121.798C70.2539 127.457 75.5705 132.051 81.906 135.073C88.2414 138.094 95.3492 139.425 102.445 138.92C109.541 138.414 116.349 136.091 122.118 132.207C127.887 128.323 132.392 123.029 135.137 116.909C137.881 110.789 138.759 104.081 137.672 97.5263C136.585 90.9712 133.576 84.8234 128.977 79.7613C124.379 74.6993 118.369 70.9198 111.611 68.84L115.984 62.5C116.407 61.8883 116.643 61.1806 116.667 60.4532C116.69 59.7258 116.5 59.0063 116.117 58.372L112.899 53.04C112.525 52.421 111.982 51.9057 111.324 51.5472C110.666 51.1887 109.918 50.9998 109.156 51H89.8437C89.0818 50.9998 88.3336 51.1887 87.6759 51.5472C87.0182 51.9057 86.4747 52.421 86.1014 53.04L82.8827 58.372C82.4998 59.0063 82.3099 59.7258 82.3334 60.4532C82.3568 61.1806 82.5927 61.8883 83.0157 62.5L87.3889 68.84C79.6815 71.2191 72.973 75.7988 68.2142 81.9299C63.4554 88.0611 60.8877 95.4327 60.875 103ZM96.4186 67.136L91.6334 60.2L92.3544 59H106.646L107.367 60.2L102.581 67.136C101.508 67.044 100.487 67 99.5 67C98.5129 67 97.4915 67.044 96.4186 67.136ZM99.5 75C105.442 75 111.25 76.6422 116.19 79.7188C121.131 82.7955 124.981 87.1685 127.255 92.2849C129.529 97.4012 130.124 103.031 128.964 108.463C127.805 113.894 124.944 118.883 120.743 122.799C116.541 126.715 111.188 129.382 105.361 130.462C99.5333 131.542 93.4929 130.988 88.0035 128.869C82.5141 126.749 77.8223 123.161 74.5213 118.556C71.2202 113.951 69.4583 108.538 69.4583 103C69.4832 95.5811 72.6563 88.4726 78.2848 83.2266C83.9133 77.9806 91.5401 75.0232 99.5 75Z" fill="white"/>
<circle cx="100" cy="100" r="98.5" stroke="#FF6F00" stroke-width="3"/>
</svg>


