<svg width="200" height="200" viewBox="0 0 200 200" fill="none" xmlns="http://www.w3.org/2000/svg">
<path d="M99.5 138C107.789 138 121.605 133.688 121.605 114.281C121.605 94.875 99.5 69 99.5 69C99.5 69 77.3947 94.875 77.3947 114.281C77.3947 133.688 91.2105 138 99.5 138ZM99.5 138C91.2105 138 83.1796 137.048 71.8684 131.531C49.7632 120.75 47 86.25 47 86.25C47 86.25 71.8684 88.4062 82.9211 94.875M99.5 138C107.789 138 115.82 137.048 127.132 131.531C149.237 120.75 152 86.25 152 86.25C152 86.25 127.132 88.4062 116.079 94.875" stroke="white" stroke-width="5"/>
<circle cx="100" cy="100" r="98.5" stroke="#FF6F00" stroke-width="3"/>
</svg>

