<svg width="200" height="200" viewBox="0 0 200 200" fill="none" xmlns="http://www.w3.org/2000/svg">
<g clip-path="url(#clip0_0_1)">
<path d="M142.803 128.414C142.968 128.122 143.116 127.819 143.246 127.507C147.186 118.059 142.315 114.749 136.674 110.917C135.316 109.995 133.777 108.949 132.212 107.741C121.402 99.3993 114.056 87.4987 110.381 72.3705C110.229 71.7452 109.844 71.2586 109.318 71.028L102.979 68.2488C102.225 67.9183 101.304 68.1642 100.637 68.8747C96.7636 72.9952 91.5415 74.4653 87.3326 72.62C83.1236 70.7746 80.6666 65.9378 81.0733 60.2976C81.1435 59.3252 80.7005 58.4814 79.9467 58.1509L75.6677 56.2749C74.6396 55.8242 73.362 56.4557 72.7929 57.6958C71.2677 61.0194 69.4402 64.3951 67.6729 67.6598C63.0346 76.2277 58.6374 84.3497 59.5254 91.4604C57.6076 92.5329 55.8975 94.4802 54.8176 96.9434L53.7661 99.3417C51.6649 104.134 52.7263 109.248 56.1319 110.741L106.793 132.952C120.031 138.757 131.292 139.691 137.686 135.516C140.241 133.847 142.002 131.4 142.803 128.414ZM71.2297 69.7696C72.6601 67.1272 74.129 64.4139 75.4751 61.6657L76.7484 62.224C76.7548 69.1055 80.0141 74.8869 85.319 77.2127C90.6239 79.5385 97.0843 78.0185 102.15 73.3607L106.486 75.2619C106.762 76.344 107.057 77.413 107.369 78.4634L105.004 80.0193C103.921 80.7316 103.428 82.237 103.903 83.3817C104.378 84.5263 105.64 84.8766 106.723 84.1648L108.793 82.8031C109.184 83.8881 109.595 84.9536 110.028 86.0012L107.852 87.4323C106.769 88.1446 106.276 89.65 106.751 90.7947C107.226 91.9394 108.488 92.29 109.571 91.5778L111.86 90.0724C112.355 91.0862 112.872 92.0819 113.41 93.056L111.468 94.3334C110.385 95.0455 109.892 96.5509 110.367 97.6959C110.842 98.8403 112.104 99.1912 113.187 98.4789L115.672 96.8441C116.28 97.7866 116.91 98.7088 117.562 99.6089L115.9 100.702C114.817 101.414 114.324 102.919 114.799 104.064C115.273 105.209 116.536 105.559 117.619 104.848L120.284 103.095C121.643 104.71 123.082 106.247 124.6 107.705C120.069 110.99 114.438 110.704 111.075 106.748C111.024 106.649 110.965 106.554 110.898 106.464C106.153 100.09 102.077 92.9136 98.4385 84.5275C98.3989 84.4306 97.9876 83.852 97.8047 83.6954C97.5129 83.4456 96.6942 83.1498 96.0265 83.5129C95.7989 83.6368 95.1797 84.0843 95.1027 84.169C91.4072 88.0699 85.3905 89.283 80.4525 87.1181C78.1893 86.1258 72.9896 82.928 73.5837 74.6844C73.6539 73.712 73.2109 72.8682 72.457 72.5377L70.2553 71.5724C70.5777 70.9739 70.9029 70.3733 71.2297 69.7696ZM108.806 128.36L58.1455 106.149C56.8456 105.579 56.5703 103.22 57.5443 100.998L58.5958 98.5999C59.1327 97.3753 59.981 96.3711 60.8681 95.8396C62.4415 98.8493 65.2982 101.237 69.5191 103.087L135.129 131.853C129.789 134.57 120.08 133.302 108.806 128.36ZM139.171 126.422C138.952 126.745 138.668 127.005 138.343 127.174C137.931 127.388 137.514 127.423 137.168 127.271L71.5329 98.4948C67.5822 96.7628 65.1724 94.6108 64.2013 91.939C64.1805 91.8676 63.9815 91.2481 63.9244 91.0003C63.0016 86.9919 65.0259 81.7587 67.9193 76.0229L69.258 76.6098C69.2601 83.5813 72.6164 89.1575 78.4389 91.7102C84.0602 94.1747 90.6238 93.2472 95.5734 89.4861C99.0175 97.0517 102.848 103.656 107.236 109.601C107.303 109.746 107.385 109.883 107.485 110.009C112.427 116.272 121.277 116.416 127.877 110.626C128.404 111.062 128.938 111.489 129.481 111.908C131.13 113.18 132.715 114.257 134.113 115.207C140.036 119.231 141.644 120.628 139.424 125.952C139.368 126.086 139.19 126.392 139.171 126.422Z" fill="white"/>
</g>
<circle cx="100" cy="100" r="98.5" stroke="#FF6F00" stroke-width="3"/>
<defs>
<clipPath id="clip0_0_1">
<rect width="94.0216" height="114.289" fill="white" transform="translate(83.8907 29) rotate(23.6739)"/>
</clipPath>
</defs>
</svg>

